<?xml version="1.0" encoding="UTF-8" standalone="no"?>
<!-- Created with Inkscape (http://www.inkscape.org/) -->

<svg
   width="1024"
   height="1024"
   viewBox="0 0 1024 1024"
   version="1.1"
   id="svg5"
   xml:space="preserve"
   inkscape:version="1.2.2 (b0a8486541, 2022-12-01)"
   sodipodi:docname="icon.svg"
   inkscape:export-filename="icon.png"
   inkscape:export-xdpi="96"
   inkscape:export-ydpi="96"
   xmlns:inkscape="http://www.inkscape.org/namespaces/inkscape"
   xmlns:sodipodi="http://sodipodi.sourceforge.net/DTD/sodipodi-0.dtd"
   xmlns:xlink="http://www.w3.org/1999/xlink"
   xmlns="http://www.w3.org/2000/svg"
   xmlns:svg="http://www.w3.org/2000/svg"><sodipodi:namedview
     id="namedview7"
     pagecolor="#ffffff"
     bordercolor="#000000"
     borderopacity="0.25"
     inkscape:showpageshadow="2"
     inkscape:pageopacity="0.0"
     inkscape:pagecheckerboard="0"
     inkscape:deskcolor="#d1d1d1"
     inkscape:document-units="px"
     showgrid="false"
     inkscape:zoom="0.26290404"
     inkscape:cx="-222.51465"
     inkscape:cy="696.07147"
     inkscape:window-width="3840"
     inkscape:window-height="2123"
     inkscape:window-x="1440"
     inkscape:window-y="0"
     inkscape:window-maximized="1"
     inkscape:current-layer="layer1"><inkscape:grid
       type="xygrid"
       id="grid9"
       originx="0"
       originy="0" /></sodipodi:namedview><defs
     id="defs2"><linearGradient
       inkscape:collect="always"
       id="linearGradient1216"><stop
         style="stop-color:#000000;stop-opacity:1"
         offset="0"
         id="stop1212" /><stop
         style="stop-color:#000000;stop-opacity:0;"
         offset="1"
         id="stop1214" /></linearGradient><linearGradient
       inkscape:collect="always"
       xlink:href="#linearGradient1216"
       id="linearGradient1218"
       x1="488.42691"
       y1="713.46747"
       x2="488.42691"
       y2="1206.0104"
       gradientUnits="userSpaceOnUse"
       gradientTransform="matrix(1,0,0,0.63046797,0,263.64907)" /><linearGradient
       inkscape:collect="always"
       xlink:href="#linearGradient1216"
       id="linearGradient1383"
       gradientUnits="userSpaceOnUse"
       gradientTransform="matrix(-1,0,0,0.63046797,976.85384,263.64907)"
       x1="488.42691"
       y1="713.46747"
       x2="488.42691"
       y2="1206.0104" /></defs><g
     inkscape:label="Layer 1"
     inkscape:groupmode="layer"
     id="layer1"><rect
       style="fill:#338000;stroke-width:1.10481"
       id="rect232"
       width="1060"
       height="1064"
       x="-20"
       y="-20" /><path
       id="rect1050"
       style="opacity:0.163408;fill:url(#linearGradient1218);fill-opacity:1;stroke-width:0.927344"
       d="m 322.55412,713.46744 h 331.7456 L 897.979,1024 H -21.12516 Z"
       sodipodi:nodetypes="ccccc" /><path
       d="m 748.13597,439.65798 15.68532,-15.68533 -47.68338,-47.68338 v -76.54438 h -21.95944 v 82.1911 z M 400.58623,666.15404 q 14.39347,0 24.43208,-10.07562 10.03861,-10.07562 10.03861,-24.4691 0,-14.39348 -10.07563,-24.43209 -10.07562,-10.03861 -24.46909,-10.03861 -14.39349,0 -24.4321,10.07562 -10.0386,10.07563 -10.0386,24.46911 0,14.39348 10.07562,24.4321 10.07562,10.03859 24.46911,10.03859 z m 193.24319,0 q 14.39347,0 24.43209,-10.07562 10.03861,-10.07562 10.03861,-24.4691 0,-14.39348 -10.07562,-24.43209 -10.07563,-10.03861 -24.46911,-10.03861 -14.39349,0 -24.4321,10.07562 -10.0386,10.07563 -10.0386,24.46911 0,14.39348 10.07562,24.4321 10.07562,10.03859 24.46911,10.03859 z m -241.591,120.46326 q -8.15637,0 -14.4305,-4.70558 -6.27413,-4.70557 -6.27413,-12.23456 V 716.9745 q -18.19498,-10.66601 -26.66505,-29.48841 -8.47007,-18.8224 -8.47007,-39.52703 V 398.87614 q 0,-26.35135 15.37162,-44.86003 15.37162,-18.50868 47.68339,-29.1747 32.31177,-10.66602 82.81849,-13.48937 50.50676,-2.82337 120.14958,0.94111 -3.76448,9.4112 -6.90153,18.50868 -3.13707,9.09749 -5.01931,19.13609 -94.73935,-6.27412 -149.95169,2.82336 -55.21234,9.0975 -66.50578,29.80212 h 213.94782 q 0,9.41119 1.41169,18.82239 1.41168,9.41119 4.23503,18.82238 H 334.04344 v 108.54244 h 326.88215 q 6.27411,2.50965 17.25385,4.39189 10.97972,1.88224 19.76351,1.88224 v 112.93432 q 0,20.70463 -8.47009,39.52703 -8.47007,18.8224 -26.66505,29.48841 v 52.70266 q 0,7.52899 -6.27412,12.23456 -6.27414,4.70558 -14.43051,4.70558 h -11.92083 q -9.06612,0 -15.19907,-4.70558 -6.13296,-4.70557 -6.13296,-12.23456 V 735.1695 H 385.4913 v 34.50766 q 0,7.52899 -6.13295,12.23456 -6.13296,4.70558 -15.19907,4.70558 z M 608.85032,566.39539 H 334.04344 660.29818 Z m 95.30025,-68.38802 q -49.49911,0 -84.32052,-34.88791 -34.82142,-34.88793 -34.82142,-84.38705 0,-49.49911 34.88792,-84.32053 34.88793,-34.82141 84.38703,-34.82141 49.49912,0 84.32053,34.88791 34.82142,34.88793 34.82142,84.38705 0,49.49912 -34.88793,84.32054 -34.88792,34.8214 -84.38703,34.8214 z M 385.4913,697.52469 h 223.35902 q 21.95945,0 36.70366,-16.94015 14.7442,-16.94014 14.7442,-38.89959 V 566.39539 H 334.04344 v 75.28956 q 0,21.95945 14.74421,38.89959 14.7442,16.94015 36.70365,16.94015 z M 547.99126,382.5634 H 334.04344 Z"
       id="path261"
       style="opacity:0.163408;fill:#000000;stroke-width:0.627413" /><path
       id="path1381"
       style="opacity:0.163408;fill:url(#linearGradient1383);fill-opacity:1;stroke-width:0.927344"
       d="M 654.29972,713.46744 H 322.55412 L 78.87484,1024 H 997.979 Z"
       sodipodi:nodetypes="ccccc" /><path
       d="m 739.62787,429.44826 15.68533,-15.68533 -47.68339,-47.68338 v -76.54438 h -21.95945 v 82.1911 z M 392.07813,655.94433 q 14.39348,0 24.43208,-10.07563 10.03862,-10.07562 10.03862,-24.4691 0,-14.39348 -10.07563,-24.43209 -10.07563,-10.0386 -24.4691,-10.0386 -14.39349,0 -24.4321,10.07562 -10.03861,10.07562 -10.03861,24.46911 0,14.39347 10.07563,24.43208 10.07562,10.03861 24.46911,10.03861 z m 193.24319,0 q 14.39348,0 24.43209,-10.07563 10.03861,-10.07562 10.03861,-24.4691 0,-14.39348 -10.07563,-24.43209 -10.07562,-10.0386 -24.4691,-10.0386 -14.39348,0 -24.4321,10.07562 -10.03861,10.07562 -10.03861,24.46911 0,14.39347 10.07563,24.43208 10.07562,10.03861 24.46911,10.03861 z m -241.591,120.46324 q -8.15637,0 -14.4305,-4.70557 -6.27412,-4.70558 -6.27412,-12.23456 v -52.70266 q -18.19499,-10.66601 -26.66505,-29.48842 -8.47008,-18.82238 -8.47008,-39.52701 V 388.66642 q 0,-26.35135 15.37161,-44.86002 15.37164,-18.50869 47.68339,-29.1747 32.31178,-10.66604 82.8185,-13.48939 50.50676,-2.82335 120.14958,0.94111 -3.76447,9.41121 -6.90153,18.50869 -3.13707,9.09749 -5.01931,19.1361 -94.73935,-6.27413 -149.95169,2.82336 -55.21234,9.09748 -66.50577,29.80211 h 213.94782 q 0,9.4112 1.41168,18.82239 1.41168,9.41119 4.23503,18.82238 H 325.53535 V 518.5409 h 326.88213 q 6.27412,2.50965 17.25387,4.39188 10.97971,1.88224 19.7635,1.88224 v 112.93433 q 0,20.70463 -8.47009,39.52701 -8.47007,18.82241 -26.66504,29.48842 v 52.70266 q 0,7.52898 -6.27413,12.23456 -6.27414,4.70557 -14.43051,4.70557 h -11.92082 q -9.06614,0 -15.19909,-4.70557 -6.13296,-4.70558 -6.13296,-12.23456 v -34.50766 h -223.359 v 34.50766 q 0,7.52898 -6.13296,12.23456 -6.13296,4.70557 -15.19907,4.70557 z M 600.34221,556.18567 H 325.53535 651.79008 Z m 95.30026,-68.38801 q -49.49911,0 -84.32052,-34.88793 -34.82142,-34.88792 -34.82142,-84.38704 0,-49.4991 34.88793,-84.32053 34.88791,-34.82142 84.38702,-34.82142 49.49912,0 84.32053,34.88793 34.82142,34.88791 34.82142,84.38703 0,49.49913 -34.88792,84.32054 -34.88793,34.82142 -84.38704,34.82142 z M 376.98321,687.31498 h 223.359 q 21.95946,0 36.70367,-16.94015 14.7442,-16.94015 14.7442,-38.89961 V 556.18567 H 325.53535 v 75.28955 q 0,21.95946 14.7442,38.89961 14.7442,16.94015 36.70366,16.94015 z M 539.48317,372.35368 H 325.53535 Z"
       id="path11"
       style="fill:#ffffff;stroke-width:0.627413" /></g></svg>
