<svg xmlns="http://www.w3.org/2000/svg" width="256" height="256"><path fill-opacity=".016" d="M0 128.004v128.004l128.25-.254 128.25-.254.254-127.75L257.008 0H0v128.004m.485.496c0 70.4.119 99.053.265 63.672.146-35.38.146-92.98 0-128C.604 29.153.485 58.1.485 128.5" fill="#1976D2" fill-rule="evenodd"/><path fill-opacity=".378" d="M0 128.004v128.004l128.25-.254 128.25-.254.254-127.75L257.008 0H0v128.004m.485.496c0 70.4.119 99.053.265 63.672.146-35.38.146-92.98 0-128C.604 29.153.485 58.1.485 128.5M161.5 65.39c-18.425 8.736-22.81 33.3-8.5 47.61 5.969 5.969 12.218 8.462 21 8.377 8.94-.086 13.312-1.786 19.719-7.669 6.564-6.025 9.259-12.352 9.271-21.762.008-6.11-.479-8.534-2.547-12.685-2.948-5.916-8.855-11.636-14.806-14.339-6.225-2.826-17.656-2.604-24.137.468m9.5 16.929v10.319l6.879 7.431 6.878 7.431 2.157-1.937 2.157-1.937-6.035-6.09-6.036-6.09V72h-6v10.319m-68.5-6.298c-13.996 1.497-23.96 5.767-27.775 11.902-2.172 3.492-2.232 4.403-2.524 38.404-.335 39.078.174 43.286 5.802 48.022C80.844 176.739 81 177.263 81 184.4c0 8.217.936 9.6 6.5 9.6 5.152 0 6.5-1.563 6.5-7.535V181h56v4.929c0 5.764 1.754 8.071 6.137 8.071 5.912 0 6.863-1.297 6.863-9.361 0-6.593.252-7.522 2.632-9.715 5.413-4.986 6.322-8.859 6.346-27.035l.022-16.61-5.25-.631c-2.887-.347-23.363-.635-45.5-.639L81 130v-28h54.514l-.357-4.5-.358-4.5h-26.4C91.93 93 82 92.634 82 92.026c0-.536 1.463-1.731 3.25-2.656 7.102-3.674 13.047-4.601 31.7-4.943l18.451-.339 1.165-3.946c1.158-3.92 1.146-3.95-1.825-4.544-3.918-.783-23.35-.529-32.241.423M81 149.532c0 11.572 1.081 15.435 5.45 19.468l2.708 2.5 31.988.29c30.801.279 32.112.214 35.315-1.766 5.254-3.247 6.539-7.163 6.539-19.925V139H81v10.532m11.635-.459c-1.909 1.501-2.635 2.995-2.635 5.418 0 4.756.836 6.373 4.194 8.109 6.067 3.138 11.806-.63 11.806-7.75 0-4.348-3.569-7.85-8-7.85-1.502 0-3.916.933-5.365 2.073m47.82.382c-3.656 3.655-3.357 8.608.727 12.045 2.507 2.109 3.833 2.547 6.247 2.064 3.937-.787 6.357-3.246 7.164-7.277.539-2.696.156-3.691-2.399-6.247-3.849-3.849-8.256-4.069-11.739-.585" fill="#1976D2" fill-rule="evenodd"/><path fill-opacity=".372" d="M0 128.004v128.004l128.25-.254 128.25-.254.254-127.75L257.008 0H0v128.004m.485.496c0 70.4.119 99.053.265 63.672.146-35.38.146-92.98 0-128C.604 29.153.485 58.1.485 128.5m164.397-65.18c-12.613 4.719-20.013 14.306-20.721 26.846-.555 9.808 1.792 15.947 8.759 22.914 6.98 6.98 13.114 9.321 22.914 8.743 11.17-.658 19.726-6.404 25.355-17.028 3.495-6.595 3.278-18.325-.479-25.977-3.054-6.217-7.471-10.63-13.988-13.97-5.263-2.698-16.594-3.491-21.84-1.528M172 83.17v10.17l6.465 6.697c6.328 6.554 6.503 6.655 8.228 4.75 1.707-1.886 1.581-2.122-3.965-7.452L177 91.831v-9.416c0-9.376-.01-9.415-2.5-9.415H172v10.17m-74.425-7.11c-11.964 2.003-19.887 6.124-23.656 12.306-1.791 2.936-1.912 5.47-1.915 40.068-.004 35.19.093 37.134 2.045 41.167 1.127 2.329 3.083 4.911 4.346 5.738 2.009 1.317 2.324 2.42 2.51 8.802.118 4.013.692 7.873 1.277 8.578 1.376 1.658 9.256 1.663 10.632.006.582-.702 1.199-3.514 1.372-6.25l.314-4.975 27.75-.266 27.75-.266v5.316c0 6.422 1.112 7.716 6.629 7.716 6.158 0 7.371-1.7 7.371-10.331 0-6.076.306-7.379 1.977-8.422 1.087-.679 2.986-3.15 4.22-5.491 2.014-3.822 2.281-5.992 2.618-21.286l.375-17.031-5.905-1.219c-4.067-.84-18.264-1.22-45.595-1.22H82v-26h54.262l-.62-3.75c-.341-2.062-.625-4.312-.631-5-.009-.968-6.051-1.258-26.761-1.283-26.692-.033-26.745-.038-24.401-1.991 4.858-4.047 11.609-5.246 32.243-5.725l19.591-.454 1.567-4.899L138.816 75l-18.158.118c-9.987.064-20.374.488-23.083.942M82 150.55c0 12.547.961 15.884 5.414 18.802C89.62 170.797 93.91 171 122.242 171c36.296 0 35.416.167 38.844-7.383 1.431-3.15 1.875-6.525 1.892-14.367L163 139H82v11.55m12.476-3.154c-3.054 1.33-5.476 5.123-5.476 8.574 0 1.032 1.165 3.261 2.589 4.953C93.648 163.371 94.96 164 98 164c3.04 0 4.352-.629 6.411-3.077 4.198-4.989 2.904-11.058-2.873-13.471-4.07-1.701-3.3-1.695-7.062-.056m49.024-.472c-6.266 2.632-7.961 10.562-3.144 14.706 5.901 5.075 14.644 1.476 14.644-6.029 0-6.082-6.322-10.852-11.5-8.677" fill="#1976D2" fill-rule="evenodd"/><path fill-opacity=".153" d="M172 82.941c0 5.468.338 10.151.75 10.408.412.256.607-3.767.431-8.941-.271-8.014-.086-9.408 1.25-9.408.863 0 1.569-.45 1.569-1s-.9-1-2-1c-1.866 0-2 .667-2 9.941m-34.961-1.559-1.116 3.383-19.212.492c-19.65.503-26.657 1.696-32.52 5.537-4.035 2.644-.979 2.462 7.424-.443 7.269-2.513 9.38-2.759 27.008-3.142l19.123-.417 1.127-3.762c1.365-4.558 1.385-5.03.205-5.03-.508 0-1.425 1.522-2.039 3.382M202.76 82c.407 1.375.725 6.325.706 11-.027 6.714-.483 9.34-2.168 12.5-2.886 5.411-9.825 11.954-15.298 14.425-6.1 2.753-17.798 2.803-23.75.102-2.338-1.061-4.25-1.735-4.25-1.498 0 .236 1.912 1.414 4.25 2.616 6.008 3.091 18.122 3.749 24.458 1.329 6.039-2.307 12.781-8.565 16.088-14.934 2.206-4.248 2.608-6.297 2.563-13.04-.035-5.231-.623-9.211-1.696-11.5-.903-1.925-1.31-2.375-.903-1m-66.289 17.25.403 3.75H82v13c0 7.15.338 13.001.75 13.002.412.001.611-5.399.441-12L82.882 105h27.559c30.542 0 28.456.512 26.475-6.5-.788-2.787-.819-2.734-.445.75m36.749 48.25c-.269 17.433-1.106 21.262-5.787 26.442-3.215 3.559-3.433 4.241-3.433 10.729 0 4.056-.498 7.427-1.2 8.129-1.556 1.556-10.044 1.556-11.6 0-.66-.66-1.2-3.36-1.2-6V182H95v4.429c0 6.447-2.027 8.089-9.5 7.695-4.149-.218-5.5-2.525-5.5-9.391v-5.885L62 195.5c-9.9 9.159-18 16.755-18 16.881 0 .724 7.932.537 8.386-.197.302-.489-.987-.811-2.865-.718-1.878.094-3.177-.214-2.887-.683.291-.47 2.275-.751 4.409-.625 2.537.149 3.604.594 3.082 1.285-6.826 9.024-13.122 17.568-14.409 19.557l-1.618 2.5h167.804l-1.589-2.5c-.874-1.375-4.452-6.377-7.951-11.115-3.499-4.738-6.362-8.901-6.362-9.25 0-.349 1.602-.635 3.559-.635 2.127 0 3.309.404 2.939 1.004-.341.552-1.785.711-3.208.354-1.821-.457-2.377-.308-1.877.502.392.633 2.628 1.079 4.97.99l4.257-.161-13.048-12.094a44609.88 44609.88 0 0 0-17.57-16.279l-4.522-4.183 2.636-2.817c5.557-5.938 5.936-7.765 5.612-27.061l-.297-17.755-.231 15m-91.205 3c.009 6.05.346 11.522.75 12.159.404.638.735-3.862.735-10V141.5h39.25c21.588 0 39.25-.327 39.25-.728 0-.4-18-.85-40-1l-40.001-.272.016 11m73.055 4.694c-.1 5.287-3.549 9.006-8.352 9.006-2.042 0-3.462.405-3.156.9.306.495 2.35.9 4.542.9 6.904 0 10.691-5.995 7.896-12.5-.692-1.611-.873-1.282-.93 1.694m-47.968.122c-.152 4.179-1.861 6.685-5.635 8.262-2.472 1.033-4.117 1.142-6.169.41-2.612-.933-2.669-.9-.857.506 1.987 1.542 7.121 1.995 10.014.885 2.769-1.063 4.472-5.562 3.564-9.418-.765-3.254-.82-3.292-.917-.645" fill="#1976D2" fill-rule="evenodd"/></svg>